<mxfile host="app.diagrams.net" modified="2023-12-25T16:13:23.520Z" agent="Mozilla/5.0 (X11; Linux x86_64; rv:121.0) Gecko/20100101 Firefox/121.0" etag="CioU-JQx4EzuS2sg30Mc" version="22.1.11" type="github">
  <diagram name="Page-1" id="AwYpYXXlwSJVcpRkPnyy">
    <mxGraphModel dx="1400" dy="689" grid="0" gridSize="10" guides="1" tooltips="1" connect="1" arrows="1" fold="1" page="1" pageScale="1" pageWidth="850" pageHeight="1100" math="0" shadow="0">
      <root>
        <mxCell id="0" />
        <mxCell id="1" parent="0" />
        <mxCell id="7SZm2HDbBHG98LXLnaz_-9" value="Химический элемент" style="swimlane;fontStyle=0;childLayout=stackLayout;horizontal=1;startSize=30;horizontalStack=0;resizeParent=1;resizeParentMax=0;resizeLast=0;collapsible=1;marginBottom=0;whiteSpace=wrap;html=1;" vertex="1" parent="1">
          <mxGeometry x="17" y="570" width="260" height="150" as="geometry" />
        </mxCell>
        <mxCell id="7SZm2HDbBHG98LXLnaz_-10" value="PK Код элемента NOT NULL" style="text;strokeColor=none;fillColor=none;align=left;verticalAlign=middle;spacingLeft=4;spacingRight=4;overflow=hidden;points=[[0,0.5],[1,0.5]];portConstraint=eastwest;rotatable=0;whiteSpace=wrap;html=1;" vertex="1" parent="7SZm2HDbBHG98LXLnaz_-9">
          <mxGeometry y="30" width="260" height="30" as="geometry" />
        </mxCell>
        <mxCell id="7SZm2HDbBHG98LXLnaz_-11" value="&lt;div&gt;Название NOT NULL&lt;br&gt;&lt;/div&gt;" style="text;strokeColor=none;fillColor=none;align=left;verticalAlign=middle;spacingLeft=4;spacingRight=4;overflow=hidden;points=[[0,0.5],[1,0.5]];portConstraint=eastwest;rotatable=0;whiteSpace=wrap;html=1;" vertex="1" parent="7SZm2HDbBHG98LXLnaz_-9">
          <mxGeometry y="60" width="260" height="30" as="geometry" />
        </mxCell>
        <mxCell id="7SZm2HDbBHG98LXLnaz_-12" value="Формула NOT NULL" style="text;strokeColor=none;fillColor=none;align=left;verticalAlign=middle;spacingLeft=4;spacingRight=4;overflow=hidden;points=[[0,0.5],[1,0.5]];portConstraint=eastwest;rotatable=0;whiteSpace=wrap;html=1;" vertex="1" parent="7SZm2HDbBHG98LXLnaz_-9">
          <mxGeometry y="90" width="260" height="30" as="geometry" />
        </mxCell>
        <mxCell id="7SZm2HDbBHG98LXLnaz_-25" value="Тип NOT NULL" style="text;strokeColor=none;fillColor=none;align=left;verticalAlign=middle;spacingLeft=4;spacingRight=4;overflow=hidden;points=[[0,0.5],[1,0.5]];portConstraint=eastwest;rotatable=0;whiteSpace=wrap;html=1;" vertex="1" parent="7SZm2HDbBHG98LXLnaz_-9">
          <mxGeometry y="120" width="260" height="30" as="geometry" />
        </mxCell>
        <mxCell id="7SZm2HDbBHG98LXLnaz_-13" value="Питательная среда" style="swimlane;fontStyle=0;childLayout=stackLayout;horizontal=1;startSize=30;horizontalStack=0;resizeParent=1;resizeParentMax=0;resizeLast=0;collapsible=1;marginBottom=0;whiteSpace=wrap;html=1;" vertex="1" parent="1">
          <mxGeometry x="561" y="140" width="260" height="120" as="geometry" />
        </mxCell>
        <mxCell id="7SZm2HDbBHG98LXLnaz_-14" value="PK Код среды NOT NULL" style="text;strokeColor=none;fillColor=none;align=left;verticalAlign=middle;spacingLeft=4;spacingRight=4;overflow=hidden;points=[[0,0.5],[1,0.5]];portConstraint=eastwest;rotatable=0;whiteSpace=wrap;html=1;" vertex="1" parent="7SZm2HDbBHG98LXLnaz_-13">
          <mxGeometry y="30" width="260" height="30" as="geometry" />
        </mxCell>
        <mxCell id="7SZm2HDbBHG98LXLnaz_-15" value="Название NOT NULL" style="text;strokeColor=none;fillColor=none;align=left;verticalAlign=middle;spacingLeft=4;spacingRight=4;overflow=hidden;points=[[0,0.5],[1,0.5]];portConstraint=eastwest;rotatable=0;whiteSpace=wrap;html=1;" vertex="1" parent="7SZm2HDbBHG98LXLnaz_-13">
          <mxGeometry y="60" width="260" height="30" as="geometry" />
        </mxCell>
        <mxCell id="7SZm2HDbBHG98LXLnaz_-16" value="Описание NOT NULL" style="text;strokeColor=none;fillColor=none;align=left;verticalAlign=middle;spacingLeft=4;spacingRight=4;overflow=hidden;points=[[0,0.5],[1,0.5]];portConstraint=eastwest;rotatable=0;whiteSpace=wrap;html=1;" vertex="1" parent="7SZm2HDbBHG98LXLnaz_-13">
          <mxGeometry y="90" width="260" height="30" as="geometry" />
        </mxCell>
        <mxCell id="7SZm2HDbBHG98LXLnaz_-17" value="Компонент среды" style="swimlane;fontStyle=0;childLayout=stackLayout;horizontal=1;startSize=30;horizontalStack=0;resizeParent=1;resizeParentMax=0;resizeLast=0;collapsible=1;marginBottom=0;whiteSpace=wrap;html=1;" vertex="1" parent="1">
          <mxGeometry x="29" y="133" width="260" height="180" as="geometry" />
        </mxCell>
        <mxCell id="7SZm2HDbBHG98LXLnaz_-18" value="&lt;div&gt;PK Код компонента NOT NULL&lt;/div&gt;" style="text;strokeColor=none;fillColor=none;align=left;verticalAlign=middle;spacingLeft=4;spacingRight=4;overflow=hidden;points=[[0,0.5],[1,0.5]];portConstraint=eastwest;rotatable=0;whiteSpace=wrap;html=1;" vertex="1" parent="7SZm2HDbBHG98LXLnaz_-17">
          <mxGeometry y="30" width="260" height="30" as="geometry" />
        </mxCell>
        <mxCell id="7SZm2HDbBHG98LXLnaz_-19" value="Мг/л NOT NULL" style="text;strokeColor=none;fillColor=none;align=left;verticalAlign=middle;spacingLeft=4;spacingRight=4;overflow=hidden;points=[[0,0.5],[1,0.5]];portConstraint=eastwest;rotatable=0;whiteSpace=wrap;html=1;" vertex="1" parent="7SZm2HDbBHG98LXLnaz_-17">
          <mxGeometry y="60" width="260" height="30" as="geometry" />
        </mxCell>
        <mxCell id="7SZm2HDbBHG98LXLnaz_-20" value="Концентрация NOT NULL" style="text;strokeColor=none;fillColor=none;align=left;verticalAlign=middle;spacingLeft=4;spacingRight=4;overflow=hidden;points=[[0,0.5],[1,0.5]];portConstraint=eastwest;rotatable=0;whiteSpace=wrap;html=1;" vertex="1" parent="7SZm2HDbBHG98LXLnaz_-17">
          <mxGeometry y="90" width="260" height="30" as="geometry" />
        </mxCell>
        <mxCell id="7SZm2HDbBHG98LXLnaz_-40" value="FK ID_компонента NOT NULL" style="text;strokeColor=none;fillColor=none;align=left;verticalAlign=middle;spacingLeft=4;spacingRight=4;overflow=hidden;points=[[0,0.5],[1,0.5]];portConstraint=eastwest;rotatable=0;whiteSpace=wrap;html=1;" vertex="1" parent="7SZm2HDbBHG98LXLnaz_-17">
          <mxGeometry y="120" width="260" height="30" as="geometry" />
        </mxCell>
        <mxCell id="7SZm2HDbBHG98LXLnaz_-41" value="FK ID_среды NOT NULL" style="text;strokeColor=none;fillColor=none;align=left;verticalAlign=middle;spacingLeft=4;spacingRight=4;overflow=hidden;points=[[0,0.5],[1,0.5]];portConstraint=eastwest;rotatable=0;whiteSpace=wrap;html=1;" vertex="1" parent="7SZm2HDbBHG98LXLnaz_-17">
          <mxGeometry y="150" width="260" height="30" as="geometry" />
        </mxCell>
        <mxCell id="7SZm2HDbBHG98LXLnaz_-21" value="Пользователи" style="swimlane;fontStyle=0;childLayout=stackLayout;horizontal=1;startSize=30;horizontalStack=0;resizeParent=1;resizeParentMax=0;resizeLast=0;collapsible=1;marginBottom=0;whiteSpace=wrap;html=1;" vertex="1" parent="1">
          <mxGeometry x="463" y="370" width="260" height="180" as="geometry" />
        </mxCell>
        <mxCell id="7SZm2HDbBHG98LXLnaz_-22" value="PK Код_пользователя NOT NULL" style="text;strokeColor=none;fillColor=none;align=left;verticalAlign=middle;spacingLeft=4;spacingRight=4;overflow=hidden;points=[[0,0.5],[1,0.5]];portConstraint=eastwest;rotatable=0;whiteSpace=wrap;html=1;" vertex="1" parent="7SZm2HDbBHG98LXLnaz_-21">
          <mxGeometry y="30" width="260" height="30" as="geometry" />
        </mxCell>
        <mxCell id="7SZm2HDbBHG98LXLnaz_-23" value="Имя пользователя NOT NULL" style="text;strokeColor=none;fillColor=none;align=left;verticalAlign=middle;spacingLeft=4;spacingRight=4;overflow=hidden;points=[[0,0.5],[1,0.5]];portConstraint=eastwest;rotatable=0;whiteSpace=wrap;html=1;" vertex="1" parent="7SZm2HDbBHG98LXLnaz_-21">
          <mxGeometry y="60" width="260" height="30" as="geometry" />
        </mxCell>
        <mxCell id="7SZm2HDbBHG98LXLnaz_-24" value="Хэш пароля NOT NULL" style="text;strokeColor=none;fillColor=none;align=left;verticalAlign=middle;spacingLeft=4;spacingRight=4;overflow=hidden;points=[[0,0.5],[1,0.5]];portConstraint=eastwest;rotatable=0;whiteSpace=wrap;html=1;" vertex="1" parent="7SZm2HDbBHG98LXLnaz_-21">
          <mxGeometry y="90" width="260" height="30" as="geometry" />
        </mxCell>
        <mxCell id="7SZm2HDbBHG98LXLnaz_-27" value="Роль NOT NULL" style="text;strokeColor=none;fillColor=none;align=left;verticalAlign=middle;spacingLeft=4;spacingRight=4;overflow=hidden;points=[[0,0.5],[1,0.5]];portConstraint=eastwest;rotatable=0;whiteSpace=wrap;html=1;" vertex="1" parent="7SZm2HDbBHG98LXLnaz_-21">
          <mxGeometry y="120" width="260" height="30" as="geometry" />
        </mxCell>
        <mxCell id="7SZm2HDbBHG98LXLnaz_-26" value="Аватар NOT NULL" style="text;strokeColor=none;fillColor=none;align=left;verticalAlign=middle;spacingLeft=4;spacingRight=4;overflow=hidden;points=[[0,0.5],[1,0.5]];portConstraint=eastwest;rotatable=0;whiteSpace=wrap;html=1;" vertex="1" parent="7SZm2HDbBHG98LXLnaz_-21">
          <mxGeometry y="150" width="260" height="30" as="geometry" />
        </mxCell>
        <mxCell id="7SZm2HDbBHG98LXLnaz_-42" value="" style="endArrow=none;html=1;rounded=0;exitX=0.565;exitY=0.007;exitDx=0;exitDy=0;exitPerimeter=0;entryX=0.515;entryY=1.1;entryDx=0;entryDy=0;entryPerimeter=0;" edge="1" parent="1" source="7SZm2HDbBHG98LXLnaz_-9" target="7SZm2HDbBHG98LXLnaz_-41">
          <mxGeometry width="50" height="50" relative="1" as="geometry">
            <mxPoint x="399" y="446" as="sourcePoint" />
            <mxPoint x="449" y="396" as="targetPoint" />
          </mxGeometry>
        </mxCell>
        <mxCell id="7SZm2HDbBHG98LXLnaz_-43" value="1,1" style="edgeLabel;html=1;align=center;verticalAlign=middle;resizable=0;points=[];" vertex="1" connectable="0" parent="7SZm2HDbBHG98LXLnaz_-42">
          <mxGeometry x="0.4512" y="2" relative="1" as="geometry">
            <mxPoint as="offset" />
          </mxGeometry>
        </mxCell>
        <mxCell id="7SZm2HDbBHG98LXLnaz_-44" value="1,1" style="edgeLabel;html=1;align=center;verticalAlign=middle;resizable=0;points=[];" vertex="1" connectable="0" parent="7SZm2HDbBHG98LXLnaz_-42">
          <mxGeometry x="-0.3957" y="3" relative="1" as="geometry">
            <mxPoint as="offset" />
          </mxGeometry>
        </mxCell>
        <mxCell id="7SZm2HDbBHG98LXLnaz_-45" value="" style="endArrow=none;html=1;rounded=0;exitX=0.996;exitY=-0.1;exitDx=0;exitDy=0;exitPerimeter=0;entryX=0;entryY=0.3;entryDx=0;entryDy=0;entryPerimeter=0;" edge="1" parent="1" source="7SZm2HDbBHG98LXLnaz_-20" target="7SZm2HDbBHG98LXLnaz_-15">
          <mxGeometry width="50" height="50" relative="1" as="geometry">
            <mxPoint x="398" y="213" as="sourcePoint" />
            <mxPoint x="448" y="163" as="targetPoint" />
          </mxGeometry>
        </mxCell>
        <mxCell id="7SZm2HDbBHG98LXLnaz_-46" value="1,1" style="edgeLabel;html=1;align=center;verticalAlign=middle;resizable=0;points=[];" vertex="1" connectable="0" parent="7SZm2HDbBHG98LXLnaz_-45">
          <mxGeometry x="-0.3398" y="2" relative="1" as="geometry">
            <mxPoint as="offset" />
          </mxGeometry>
        </mxCell>
        <mxCell id="7SZm2HDbBHG98LXLnaz_-47" value="1,N" style="edgeLabel;html=1;align=center;verticalAlign=middle;resizable=0;points=[];" vertex="1" connectable="0" parent="7SZm2HDbBHG98LXLnaz_-45">
          <mxGeometry x="0.5893" y="-2" relative="1" as="geometry">
            <mxPoint as="offset" />
          </mxGeometry>
        </mxCell>
      </root>
    </mxGraphModel>
  </diagram>
</mxfile>
